<?xml version="1.0" encoding="UTF-8" standalone="no"?>
<!-- Uploaded to: SVG Repo, www.svgrepo.com, Generator: SVG Repo Mixer Tools -->

<svg
   fill="#000000"
   height="800px"
   width="800px"
   version="1.2"
   id="Layer_1"
   viewBox="-63 65 128 128"
   xml:space="preserve"
   sodipodi:docname="tunnel-tunnel-vision-focus-passage-svgrepo-com.svg"
   inkscape:version="1.4.2 (f4327f4, 2025-05-13)"
   xmlns:inkscape="http://www.inkscape.org/namespaces/inkscape"
   xmlns:sodipodi="http://sodipodi.sourceforge.net/DTD/sodipodi-0.dtd"
   xmlns="http://www.w3.org/2000/svg"
   xmlns:svg="http://www.w3.org/2000/svg"><defs
   id="defs1" /><sodipodi:namedview
   id="namedview1"
   pagecolor="#ffffff"
   bordercolor="#000000"
   borderopacity="0.25"
   inkscape:showpageshadow="2"
   inkscape:pageopacity="0.0"
   inkscape:pagecheckerboard="0"
   inkscape:deskcolor="#d1d1d1"
   inkscape:zoom="1.6042485"
   inkscape:cx="291.72538"
   inkscape:cy="427.92622"
   inkscape:window-width="3840"
   inkscape:window-height="2054"
   inkscape:window-x="3829"
   inkscape:window-y="-11"
   inkscape:window-maximized="1"
   inkscape:current-layer="Layer_1" />
<circle
   style="opacity:1;fill:#f4e3d7;stroke:#000000;stroke-width:3.12196;stroke-linecap:round;stroke-linejoin:round"
   id="path2"
   cx="0.99999857"
   cy="129"
   r="62.439022" /><path
   d="m -11.072644,141.98815 v -14.45002 c 0,-5.8399 4.7917165,-10.63162 10.63162053,-10.63162 5.83990457,0 10.63162047,4.79172 10.63162047,10.63162 v 14.45002 z M 0.30768253,93.921249 c 15.42333747,0 28.00159347,12.503381 28.00159347,28.001591 v 36.08761 h 7.93628 v -36.08761 c 0,-19.8407 -16.097173,-35.937871 -35.93787347,-35.937871 -19.84070053,0 -35.93787253,16.097171 -35.93787253,35.937871 v 36.08761 h 7.93628 v -36.08761 c 0,-15.49821 12.578256,-28.001591 28.00159253,-28.001591 M 1.7302232,145.05784 h -4.3424927 l -0.524094,3.0697 h 5.3906807 z m 1.2727997,7.71167 h -6.9629634 l -0.823576,4.56711 H 3.8265991 Z M 4.8747871,163.476 H -5.8317045 l -0.973317,6.06452 H 5.922975 Z"
   id="path1"
   style="stroke-width:0.748706" />
</svg>
