<?xml version="1.0" encoding="UTF-8" standalone="no"?>
<svg
   width="579.66669"
   zoomAndPan="magnify"
   viewBox="0 0 434.75002 434.75001"
   height="579.66669"
   preserveAspectRatio="xMidYMid"
   version="1.0"
   id="svg146"
   sodipodi:docname="4.svg"
   inkscape:version="1.4.2 (f4327f4, 2025-05-13)"
   xmlns:inkscape="http://www.inkscape.org/namespaces/inkscape"
   xmlns:sodipodi="http://sodipodi.sourceforge.net/DTD/sodipodi-0.dtd"
   xmlns="http://www.w3.org/2000/svg"
   xmlns:svg="http://www.w3.org/2000/svg">
  <sodipodi:namedview
     id="namedview146"
     pagecolor="#ffffff"
     bordercolor="#000000"
     borderopacity="0.25"
     inkscape:showpageshadow="2"
     inkscape:pageopacity="0.0"
     inkscape:pagecheckerboard="0"
     inkscape:deskcolor="#d1d1d1"
     inkscape:zoom="0.4201389"
     inkscape:cx="1290.0496"
     inkscape:cy="-39.272726"
     inkscape:window-width="3840"
     inkscape:window-height="2054"
     inkscape:window-x="3829"
     inkscape:window-y="-11"
     inkscape:window-maximized="1"
     inkscape:current-layer="svg146" />
  <defs
     id="defs55">
    <clipPath
       id="eda07efefe">
      <path
         d="m 502.29687,187.25391 h 434.75 v 434.75 h -434.75 z m 0,0"
         clip-rule="nonzero"
         id="path1" />
    </clipPath>
    <clipPath
       id="0b0e65613d">
      <path
         d="m 719.67187,187.25391 c -120.05468,0 -217.375,97.32031 -217.375,217.375 0,120.05078 97.32032,217.375 217.375,217.375 120.05079,0 217.375,-97.32422 217.375,-217.375 0,-120.05469 -97.32421,-217.375 -217.375,-217.375 z m 0,0"
         clip-rule="nonzero"
         id="path2" />
    </clipPath>
    <clipPath
       id="58be1220c5">
      <path
         d="M 0.296875,0.253906 H 435.04687 V 435.00391 H 0.296875 Z m 0,0"
         clip-rule="nonzero"
         id="path3" />
    </clipPath>
    <clipPath
       id="2d5cac1507">
      <path
         d="m 217.67187,0.253906 c -120.054682,0 -217.374995,97.320313 -217.374995,217.375004 0,120.05078 97.320313,217.375 217.374995,217.375 120.05079,0 217.375,-97.32422 217.375,-217.375 0,-120.054691 -97.32421,-217.375004 -217.375,-217.375004 z m 0,0"
         clip-rule="nonzero"
         id="path4" />
    </clipPath>
    <clipPath
       id="f08e0282e9">
      <rect
         x="0"
         width="436"
         y="0"
         height="436"
         id="rect4" />
    </clipPath>
    <clipPath
       id="cb81d709a5">
      <path
         d="M 502.29687,187.25391 H 937.03906 V 621.99609 H 502.29687 Z m 0,0"
         clip-rule="nonzero"
         id="path5" />
    </clipPath>
    <clipPath
       id="04c94eee45">
      <path
         d="m 719.66797,187.25391 c -120.05078,0 -217.3711,97.32031 -217.3711,217.37109 0,120.05078 97.32032,217.37109 217.3711,217.37109 120.05078,0 217.37109,-97.32031 217.37109,-217.37109 0,-120.05078 -97.32031,-217.37109 -217.37109,-217.37109 z m 0,0"
         clip-rule="nonzero"
         id="path6" />
    </clipPath>
    <clipPath
       id="e9aac955e8">
      <path
         d="m 865.20703,333.96484 h 40.76953 V 380.625 h -40.76953 z m 0,0"
         clip-rule="nonzero"
         id="path7" />
    </clipPath>
    <clipPath
       id="3a1ee58fe2">
      <path
         d="m 905.97656,357.26172 -40.76953,23.29297 v -46.58985 z m 0,0"
         clip-rule="nonzero"
         id="path8" />
    </clipPath>
    <clipPath
       id="ab54fa1343">
      <path
         d="M 0.207031,0.964844 H 40.976562 V 47.625 H 0.207031 Z m 0,0"
         clip-rule="nonzero"
         id="path9" />
    </clipPath>
    <clipPath
       id="430560d65c">
      <path
         d="M 40.976562,24.261719 0.207031,47.554688 V 0.964844 Z m 0,0"
         clip-rule="nonzero"
         id="path10" />
    </clipPath>
    <clipPath
       id="e2f2da6a3d">
      <rect
         x="0"
         width="41"
         y="0"
         height="48"
         id="rect10" />
    </clipPath>
    <clipPath
       id="3fa81849ae">
      <path
         d="m 785,335 h 15 v 25 h -15 z m 0,0"
         clip-rule="nonzero"
         id="path11" />
    </clipPath>
    <clipPath
       id="51d7b46ea7">
      <path
         d="m 781.06641,337.71875 8.30468,-3.75781 9.8711,21.83203 -8.30469,3.7539 z m 0,0"
         clip-rule="nonzero"
         id="path12" />
    </clipPath>
    <clipPath
       id="21769f130d">
      <path
         d="m 785.21875,335.83984 14.01172,19.92578 -8.30469,3.75391 z m 0,0"
         clip-rule="nonzero"
         id="path13" />
    </clipPath>
    <clipPath
       id="fc00127d5a">
      <path
         d="M 0.0390625,0.761719 H 14.441406 V 24.519531 H 0.0390625 Z m 0,0"
         clip-rule="nonzero"
         id="path14" />
    </clipPath>
    <clipPath
       id="257c48b68e">
      <path
         d="M -3.933594,2.71875 4.371094,-1.039062 14.242188,20.792969 5.9375,24.546875 Z m 0,0"
         clip-rule="nonzero"
         id="path15" />
    </clipPath>
    <clipPath
       id="dc0fc8b6c6">
      <path
         d="m 0.21875,0.839844 14.011719,19.925781 -8.304688,3.753906 z m 0,0"
         clip-rule="nonzero"
         id="path16" />
    </clipPath>
    <clipPath
       id="28b330a5e6">
      <rect
         x="0"
         width="15"
         y="0"
         height="25"
         id="rect16" />
    </clipPath>
    <clipPath
       id="9ae7b261a7">
      <path
         d="m 784,352 h 17 v 27 h -17 z m 0,0"
         clip-rule="nonzero"
         id="path17" />
    </clipPath>
    <clipPath
       id="53a8e03b82">
      <path
         d="m 789.41016,380.55078 -9.04688,-4.08594 10.73438,-23.77734 9.04687,4.08203 z m 0,0"
         clip-rule="nonzero"
         id="path18" />
    </clipPath>
    <clipPath
       id="66818a4262">
      <path
         d="m 784.88672,378.50781 6.19531,-25.78906 9.04688,4.08203 z m 0,0"
         clip-rule="nonzero"
         id="path19" />
    </clipPath>
    <clipPath
       id="70faa6b8a4">
      <path
         d="M 0.800781,0.558594 H 16.160156 V 26.71875 H 0.800781 Z m 0,0"
         clip-rule="nonzero"
         id="path20" />
    </clipPath>
    <clipPath
       id="ff96376418">
      <path
         d="M 5.410156,28.550781 -3.636719,24.464844 7.097656,0.6875 16.144531,4.769531 Z m 0,0"
         clip-rule="nonzero"
         id="path21" />
    </clipPath>
    <clipPath
       id="83a8472efc">
      <path
         d="M 0.886719,26.507812 7.082031,0.71875 16.128906,4.800781 Z m 0,0"
         clip-rule="nonzero"
         id="path22" />
    </clipPath>
    <clipPath
       id="9e9bb057f8">
      <rect
         x="0"
         width="17"
         y="0"
         height="27"
         id="rect22" />
    </clipPath>
    <clipPath
       id="4402d2eb9a">
      <path
         d="m 629.75391,394.78906 h 180.9375 v 95.3125 h -180.9375 z m 0,0"
         clip-rule="nonzero"
         id="path23" />
    </clipPath>
    <clipPath
       id="d16d2ff96e">
      <path
         d="m 637.25391,394.78906 h 165.78125 c 1.99218,0 3.89843,0.79297 5.30468,2.19922 1.40625,1.40625 2.19532,3.3125 2.19532,5.30078 v 80.3125 c 0,1.98828 -0.78907,3.89453 -2.19532,5.30078 -1.40625,1.41016 -3.3125,2.19922 -5.30468,2.19922 H 637.25391 c -1.98829,0 -3.89844,-0.78906 -5.30469,-2.19922 -1.40625,-1.40625 -2.19531,-3.3125 -2.19531,-5.30078 v -80.3125 c 0,-1.98828 0.78906,-3.89453 2.19531,-5.30078 1.40625,-1.40625 3.3164,-2.19922 5.30469,-2.19922 z m 0,0"
         clip-rule="nonzero"
         id="path24" />
    </clipPath>
    <clipPath
       id="f902db9689">
      <path
         d="M 0.753906,0.789062 H 181.69141 v 95.3125 H 0.753906 Z m 0,0"
         clip-rule="nonzero"
         id="path25" />
    </clipPath>
    <clipPath
       id="98284279b5">
      <path
         d="M 8.253906,0.789062 H 174.03516 c 1.99218,0 3.89843,0.792969 5.30468,2.199219 1.40625,1.40625 2.19532,3.3125 2.19532,5.300781 v 80.3125 c 0,1.988282 -0.78907,3.894532 -2.19532,5.300782 -1.40625,1.410156 -3.3125,2.199218 -5.30468,2.199218 H 8.253906 c -1.988281,0 -3.898437,-0.789062 -5.304687,-2.199218 -1.40625,-1.40625 -2.195313,-3.3125 -2.195313,-5.300782 v -80.3125 c 0,-1.988281 0.789063,-3.894531 2.195313,-5.300781 1.40625,-1.40625 3.316406,-2.199219 5.304687,-2.199219 z m 0,0"
         clip-rule="nonzero"
         id="path26" />
    </clipPath>
    <clipPath
       id="d65788a5d8">
      <rect
         x="0"
         width="182"
         y="0"
         height="97"
         id="rect26" />
    </clipPath>
    <clipPath
       id="1f0c58d6b9">
      <path
         d="m 567.79297,308.30469 h 84.67187 v 66.49218 h -84.67187 z m 0,0"
         clip-rule="nonzero"
         id="path27" />
    </clipPath>
    <clipPath
       id="674a87bc7d">
      <path
         d="m 595.37891,374.79687 h 29.32812 c 4.47656,0 8.45313,-2.86718 9.87109,-7.11718 l 17.41797,-52.25782 c 0.55078,-1.64843 0.27344,-3.46093 -0.74218,-4.87109 -1.01563,-1.41016 -2.64844,-2.24609 -4.38282,-2.24609 h -73.65625 c -1.73828,0 -3.36718,0.83593 -4.38672,2.24609 -1.01562,1.41016 -1.28906,3.22266 -0.74218,4.87109 l 17.42187,52.25782 c 1.41406,4.25 5.39063,7.11718 9.8711,7.11718 z m 0,0"
         clip-rule="nonzero"
         id="path28" />
    </clipPath>
    <clipPath
       id="a2765e8b30">
      <path
         d="M 0.792969,0.304688 H 85.464844 V 66.796875 H 0.792969 Z m 0,0"
         clip-rule="nonzero"
         id="path29" />
    </clipPath>
    <clipPath
       id="dbcf98504c">
      <path
         d="m 28.378906,66.796875 h 29.328125 c 4.476563,0 8.453125,-2.867187 9.871094,-7.117187 L 84.996094,7.421875 C 85.546875,5.773438 85.269531,3.960938 84.253906,2.550781 83.238281,1.140625 81.605469,0.304688 79.871094,0.304688 H 6.214844 c -1.738282,0 -3.367188,0.835937 -4.386719,2.246093 C 0.8125,3.960938 0.539062,5.773438 1.085938,7.421875 l 17.421874,52.257813 c 1.414063,4.25 5.390626,7.117187 9.871094,7.117187 z m 0,0"
         clip-rule="nonzero"
         id="path30" />
    </clipPath>
    <clipPath
       id="d1ad3a46fd">
      <rect
         x="0"
         width="86"
         y="0"
         height="67"
         id="rect30" />
    </clipPath>
    <clipPath
       id="e3ae1735f7">
      <path
         d="m 565.71484,290.39453 h 88.67969 v 10.04688 h -88.67969 z m 0,0"
         clip-rule="nonzero"
         id="path31" />
    </clipPath>
    <clipPath
       id="c0ff0e42ae">
      <path
         d="m 570.73828,290.39453 h 78.60547 c 1.33203,0 2.61328,0.52734 3.55469,1.46875 0.9414,0.94531 1.47265,2.22266 1.47265,3.55469 0,1.33203 -0.53125,2.60937 -1.47265,3.55469 -0.94141,0.9414 -2.22266,1.46875 -3.55469,1.46875 h -78.60547 c -1.33203,0 -2.60937,-0.52735 -3.55078,-1.46875 -0.94141,-0.94532 -1.47266,-2.22266 -1.47266,-3.55469 0,-1.33203 0.53125,-2.60938 1.47266,-3.55469 0.94141,-0.94141 2.21875,-1.46875 3.55078,-1.46875 z m 0,0"
         clip-rule="nonzero"
         id="path32" />
    </clipPath>
    <clipPath
       id="4f5ff2f3b0">
      <path
         d="M 0.714844,0.394531 H 89.394531 V 10.441406 H 0.714844 Z m 0,0"
         clip-rule="nonzero"
         id="path33" />
    </clipPath>
    <clipPath
       id="a6f80d5040">
      <path
         d="M 5.738281,0.394531 H 84.34375 c 1.332031,0 2.613281,0.527344 3.554688,1.46875 0.941406,0.945313 1.472656,2.222657 1.472656,3.554688 0,1.332031 -0.53125,2.609375 -1.472656,3.554687 -0.941407,0.941406 -2.222657,1.46875 -3.554688,1.46875 H 5.738281 C 4.40625,10.441406 3.128906,9.914062 2.1875,8.972656 1.246094,8.027344 0.714844,6.75 0.714844,5.417969 c 0,-1.332031 0.53125,-2.609375 1.472656,-3.554688 0.941406,-0.941406 2.21875,-1.46875 3.550781,-1.46875 z m 0,0"
         clip-rule="nonzero"
         id="path34" />
    </clipPath>
    <clipPath
       id="1dd6f8135d">
      <rect
         x="0"
         width="90"
         y="0"
         height="11"
         id="rect34" />
    </clipPath>
    <clipPath
       id="0e1b88e8c7">
      <path
         d="m 698.63281,394.78906 h 37.47656 v 133.51563 h -37.47656 z m 0,0"
         clip-rule="nonzero"
         id="path35" />
    </clipPath>
    <clipPath
       id="c678218bdc">
      <path
         d="m 706.13281,394.78906 h 22.47656 c 1.98829,0 3.89844,0.79297 5.30469,2.19922 1.40625,1.40625 2.19531,3.3125 2.19531,5.30078 v 118.4336 c 0,1.98828 -0.78906,3.89453 -2.19531,5.30078 -1.40625,1.40625 -3.3164,2.19922 -5.30469,2.19922 h -22.47656 c -1.98828,0 -3.89844,-0.79297 -5.30469,-2.19922 -1.40625,-1.40625 -2.19531,-3.3125 -2.19531,-5.30078 v -118.4336 c 0,-1.98828 0.78906,-3.89453 2.19531,-5.30078 1.40625,-1.40625 3.31641,-2.19922 5.30469,-2.19922 z m 0,0"
         clip-rule="nonzero"
         id="path36" />
    </clipPath>
    <clipPath
       id="2841156851">
      <path
         d="M 0.632812,0.789062 H 38.109375 V 134.23828 H 0.632812 Z m 0,0"
         clip-rule="nonzero"
         id="path37" />
    </clipPath>
    <clipPath
       id="c73e965270">
      <path
         d="m 8.132812,0.789062 h 22.476563 c 1.988281,0 3.898437,0.792969 5.304687,2.199219 1.40625,1.40625 2.195313,3.3125 2.195313,5.300781 V 126.72266 c 0,1.98828 -0.789063,3.89453 -2.195313,5.30078 -1.40625,1.40625 -3.316406,2.19922 -5.304687,2.19922 H 8.132812 c -1.988281,0 -3.898437,-0.79297 -5.304687,-2.19922 -1.40625,-1.40625 -2.195313,-3.3125 -2.195313,-5.30078 V 8.289062 c 0,-1.988281 0.789063,-3.894531 2.195313,-5.300781 1.40625,-1.40625 3.316406,-2.199219 5.304687,-2.199219 z m 0,0"
         clip-rule="nonzero"
         id="path38" />
    </clipPath>
    <clipPath
       id="378f969d87">
      <rect
         x="0"
         width="39"
         y="0"
         height="135"
         id="rect38" />
    </clipPath>
    <clipPath
       id="cfb51cb9de">
      <path
         d="m 629.625,497.53125 h 180.90234 v 30.69141 H 629.625 Z m 0,0"
         clip-rule="nonzero"
         id="path39" />
    </clipPath>
    <clipPath
       id="12cf5d4e05">
      <path
         d="m 810.52734,505.03125 v 15.69141 c 0,1.98828 -0.78906,3.89453 -2.19922,5.30078 -1.40625,1.40625 -3.3125,2.19922 -5.30078,2.19922 H 637.24219 c -1.98828,0 -3.89453,-0.79297 -5.30078,-2.19922 -1.41016,-1.40625 -2.19922,-3.3125 -2.19922,-5.30078 v -15.69141 c 0,-1.98828 0.78906,-3.89844 2.19922,-5.30469 1.40625,-1.40625 3.3125,-2.19531 5.30078,-2.19531 h 165.78515 c 1.98828,0 3.89453,0.78906 5.30078,2.19531 1.41016,1.40625 2.19922,3.31641 2.19922,5.30469 z m 0,0"
         clip-rule="nonzero"
         id="path40" />
    </clipPath>
    <clipPath
       id="9c2dd8b4d2">
      <path
         d="M 0.625,0.53125 H 181.52734 V 31.222656 H 0.625 Z m 0,0"
         clip-rule="nonzero"
         id="path41" />
    </clipPath>
    <clipPath
       id="7ba8f3f325">
      <path
         d="m 181.52734,8.03125 v 15.691406 c 0,1.988282 -0.78906,3.894532 -2.19922,5.300782 -1.40625,1.40625 -3.3125,2.199218 -5.30078,2.199218 H 8.242188 c -1.988282,0 -3.894532,-0.792968 -5.300782,-2.199218 -1.410156,-1.40625 -2.199218,-3.3125 -2.199218,-5.300782 V 8.03125 c 0,-1.988281 0.789062,-3.898438 2.199218,-5.304688 1.40625,-1.40625 3.3125,-2.195312 5.300782,-2.195312 H 174.02734 c 1.98828,0 3.89453,0.789062 5.30078,2.195312 1.41016,1.40625 2.19922,3.316407 2.19922,5.304688 z m 0,0"
         clip-rule="nonzero"
         id="path42" />
    </clipPath>
    <clipPath
       id="a074b1b0cb">
      <rect
         x="0"
         width="182"
         y="0"
         height="32"
         id="rect42" />
    </clipPath>
    <clipPath
       id="d3f5d80a71">
      <path
         d="m 787.92187,305.19141 h 22.61329 v 22.61328 h -22.61329 z m 0,0"
         clip-rule="nonzero"
         id="path43" />
    </clipPath>
    <clipPath
       id="4e42738604">
      <path
         d="m 799.23047,305.19141 c -6.2461,0 -11.3086,5.0625 -11.3086,11.30859 0,6.24219 5.0625,11.30469 11.3086,11.30469 6.24219,0 11.30469,-5.0625 11.30469,-11.30469 0,-6.24609 -5.0625,-11.30859 -11.30469,-11.30859 z m 0,0"
         clip-rule="nonzero"
         id="path44" />
    </clipPath>
    <clipPath
       id="030663bc74">
      <path
         d="M 0.921875,0.191406 H 23.535156 V 22.804688 H 0.921875 Z m 0,0"
         clip-rule="nonzero"
         id="path45" />
    </clipPath>
    <clipPath
       id="1a9a1d2963">
      <path
         d="m 12.230469,0.191406 c -6.246094,0 -11.308594,5.0625 -11.308594,11.308594 0,6.242188 5.0625,11.304688 11.308594,11.304688 6.242187,0 11.304687,-5.0625 11.304687,-11.304688 0,-6.246094 -5.0625,-11.308594 -11.304687,-11.308594 z m 0,0"
         clip-rule="nonzero"
         id="path46" />
    </clipPath>
    <clipPath
       id="df50816804">
      <rect
         x="0"
         width="24"
         y="0"
         height="23"
         id="rect46" />
    </clipPath>
    <clipPath
       id="82f9edb6ce">
      <path
         d="m 859.04687,304.80469 h 22.61719 v 22.61718 h -22.61719 z m 0,0"
         clip-rule="nonzero"
         id="path47" />
    </clipPath>
    <clipPath
       id="94df21bbf7">
      <path
         d="m 870.35547,304.80469 c -6.2461,0 -11.3086,5.0625 -11.3086,11.30859 0,6.24609 5.0625,11.30859 11.3086,11.30859 6.24609,0 11.30859,-5.0625 11.30859,-11.30859 0,-6.24609 -5.0625,-11.30859 -11.30859,-11.30859 z m 0,0"
         clip-rule="nonzero"
         id="path48" />
    </clipPath>
    <clipPath
       id="32795c97cd">
      <path
         d="M 0.046875,0.804688 H 22.664062 V 23.421875 H 0.046875 Z m 0,0"
         clip-rule="nonzero"
         id="path49" />
    </clipPath>
    <clipPath
       id="3a2c0ac103">
      <path
         d="m 11.355469,0.804688 c -6.246094,0 -11.308594,5.0625 -11.308594,11.308593 0,6.246094 5.0625,11.308594 11.308594,11.308594 6.246093,0 11.308593,-5.0625 11.308593,-11.308594 0,-6.246093 -5.0625,-11.308593 -11.308593,-11.308593 z m 0,0"
         clip-rule="nonzero"
         id="path50" />
    </clipPath>
    <clipPath
       id="d6877d8e33">
      <rect
         x="0"
         width="23"
         y="0"
         height="24"
         id="rect50" />
    </clipPath>
    <clipPath
       id="817f26f6ef">
      <path
         d="m 732,408.52734 h 4 V 417 h -4 z m 0,0"
         clip-rule="nonzero"
         id="path51" />
    </clipPath>
    <clipPath
       id="e8f524c271">
      <path
         d="m 749,429 h 7.85156 v 4 H 749 Z m 0,0"
         clip-rule="nonzero"
         id="path52" />
    </clipPath>
    <clipPath
       id="2d718f6e28">
      <path
         d="M 683.35156,426 H 743 v 36 h -59.64844 z m 0,0"
         clip-rule="nonzero"
         id="path53" />
    </clipPath>
    <clipPath
       id="7872b501c1">
      <path
         d="m 700,466 h 7 v 10.02734 h -7 z m 0,0"
         clip-rule="nonzero"
         id="path54" />
    </clipPath>
    <clipPath
       id="9dab153a2b">
      <path
         d="m 712,466 h 7 v 10.02734 h -7 z m 0,0"
         clip-rule="nonzero"
         id="path55" />
    </clipPath>
    <clipPath
       id="cb81d709a5-0">
      <path
         d="M 502.29687,187.25391 H 937.03906 V 621.99609 H 502.29687 Z m 0,0"
         clip-rule="nonzero"
         id="path5-9" />
    </clipPath>
    <clipPath
       id="04c94eee45-4">
      <path
         d="m 719.66797,187.25391 c -120.05078,0 -217.3711,97.32031 -217.3711,217.37109 0,120.05078 97.32032,217.37109 217.3711,217.37109 120.05078,0 217.37109,-97.32031 217.37109,-217.37109 0,-120.05078 -97.32031,-217.37109 -217.37109,-217.37109 z m 0,0"
         clip-rule="nonzero"
         id="path6-8" />
    </clipPath>
    <clipPath
       id="eda07efefe-5">
      <path
         d="m 502.29687,187.25391 h 434.75 v 434.75 h -434.75 z m 0,0"
         clip-rule="nonzero"
         id="path1-1" />
    </clipPath>
    <clipPath
       id="0b0e65613d-7">
      <path
         d="m 719.67187,187.25391 c -120.05468,0 -217.375,97.32031 -217.375,217.375 0,120.05078 97.32032,217.375 217.375,217.375 120.05079,0 217.375,-97.32422 217.375,-217.375 0,-120.05469 -97.32421,-217.375 -217.375,-217.375 z m 0,0"
         clip-rule="nonzero"
         id="path2-1" />
    </clipPath>
    <clipPath
       id="f08e0282e9-1">
      <rect
         x="0"
         width="436"
         y="0"
         height="436"
         id="rect4-5" />
    </clipPath>
    <clipPath
       id="58be1220c5-2">
      <path
         d="M 0.296875,0.253906 H 435.04687 V 435.00391 H 0.296875 Z m 0,0"
         clip-rule="nonzero"
         id="path3-7" />
    </clipPath>
    <clipPath
       id="2d5cac1507-6">
      <path
         d="m 217.67187,0.253906 c -120.054682,0 -217.374995,97.320313 -217.374995,217.375004 0,120.05078 97.320313,217.375 217.374995,217.375 120.05079,0 217.375,-97.32422 217.375,-217.375 0,-120.054691 -97.32421,-217.375004 -217.375,-217.375004 z m 0,0"
         clip-rule="nonzero"
         id="path4-1" />
    </clipPath>
  </defs>
  <circle
     style="opacity:1;fill:#e3fbff;stroke:#000000;stroke-width:7.5;stroke-linecap:round;stroke-linejoin:round;fill-opacity:1"
     id="path56"
     cx="217.375"
     cy="217.375"
     r="217.375" />
  <g
     clip-path="url(#e9aac955e8)"
     id="g69"
     transform="translate(-502.29688,-187.25391)">
    <g
       clip-path="url(#3a1ee58fe2)"
       id="g68">
      <g
         transform="translate(865,333)"
         id="g67">
        <g
           clip-path="url(#e2f2da6a3d)"
           id="g66">
          <g
             clip-path="url(#ab54fa1343)"
             id="g65">
            <g
               clip-path="url(#430560d65c)"
               id="g64">
              <path
                 fill="#919191"
                 d="M 40.976562,0.964844 V 47.625 H 0.207031 V 0.964844 Z m 0,0"
                 fill-opacity="1"
                 fill-rule="nonzero"
                 id="path63" />
            </g>
          </g>
        </g>
      </g>
    </g>
  </g>
  <path
     stroke-linecap="butt"
     fill="none"
     stroke-linejoin="miter"
     d="m 292.78125,170.39063 70.14065,-0.38281"
     stroke="#919191"
     stroke-width="6.75"
     stroke-opacity="1"
     stroke-miterlimit="4"
     id="path69" />
  <path
     stroke-linecap="butt"
     fill="none"
     stroke-linejoin="miter"
     d="M 282.17578,146.71093 296.9297,170.0078"
     stroke="#919191"
     stroke-width="3"
     stroke-opacity="1"
     stroke-miterlimit="4"
     id="path70" />
  <path
     stroke-linecap="butt"
     fill="none"
     stroke-linejoin="miter"
     d="m 296.92969,170.00781 -14.75392,23.29296"
     stroke="#919191"
     stroke-width="3"
     stroke-opacity="1"
     stroke-miterlimit="4"
     id="path71" />
  <path
     stroke-linecap="butt"
     fill="none"
     stroke-linejoin="miter"
     d="m 287.95703,170.00781 -5.78125,23.29689"
     stroke="#919191"
     stroke-width="3"
     stroke-opacity="1"
     stroke-miterlimit="4"
     id="path72" />
  <path
     stroke-linecap="butt"
     fill="none"
     stroke-linejoin="miter"
     d="m 282.17578,146.71094 5.78126,23.29689"
     stroke="#919191"
     stroke-width="3"
     stroke-opacity="1"
     stroke-miterlimit="4"
     id="path73" />
  <g
     clip-path="url(#3fa81849ae)"
     id="g81"
     transform="translate(-502.29688,-187.25391)">
    <g
       clip-path="url(#51d7b46ea7)"
       id="g80">
      <g
         clip-path="url(#21769f130d)"
         id="g79">
        <g
           transform="translate(785,335)"
           id="g78">
          <g
             clip-path="url(#28b330a5e6)"
             id="g77">
            <g
               clip-path="url(#fc00127d5a)"
               id="g76">
              <g
                 clip-path="url(#257c48b68e)"
                 id="g75">
                <g
                   clip-path="url(#dc0fc8b6c6)"
                   id="g74">
                  <path
                     fill="#919191"
                     d="m -3.933594,2.71875 8.304688,-3.757812 9.859375,21.800781 -8.304688,3.753906 z m 0,0"
                     fill-opacity="1"
                     fill-rule="nonzero"
                     id="path74" />
                </g>
              </g>
            </g>
          </g>
        </g>
      </g>
    </g>
  </g>
  <g
     clip-path="url(#9ae7b261a7)"
     id="g89"
     transform="translate(-502.29688,-187.25391)">
    <g
       clip-path="url(#53a8e03b82)"
       id="g88">
      <g
         clip-path="url(#66818a4262)"
         id="g87">
        <g
           transform="translate(784,352)"
           id="g86">
          <g
             clip-path="url(#9e9bb057f8)"
             id="g85">
            <g
               clip-path="url(#70faa6b8a4)"
               id="g84">
              <g
                 clip-path="url(#ff96376418)"
                 id="g83">
                <g
                   clip-path="url(#83a8472efc)"
                   id="g82">
                  <path
                     fill="#919191"
                     d="M 5.410156,28.550781 -3.636719,24.464844 7.082031,0.722656 16.125,4.804688 Z m 0,0"
                     fill-opacity="1"
                     fill-rule="nonzero"
                     id="path81" />
                </g>
              </g>
            </g>
          </g>
        </g>
      </g>
    </g>
  </g>
  <g
     clip-path="url(#4402d2eb9a)"
     id="g95"
     transform="translate(-502.29688,-187.25391)">
    <g
       clip-path="url(#d16d2ff96e)"
       id="g94">
      <g
         transform="translate(629,394)"
         id="g93">
        <g
           clip-path="url(#d65788a5d8)"
           id="g92">
          <g
             clip-path="url(#f902db9689)"
             id="g91">
            <g
               clip-path="url(#98284279b5)"
               id="g90">
              <path
                 fill="#919191"
                 d="M 0.753906,0.789062 H 181.69141 v 95.3125 H 0.753906 Z m 0,0"
                 fill-opacity="1"
                 fill-rule="nonzero"
                 id="path89" />
            </g>
          </g>
        </g>
      </g>
    </g>
  </g>
  <g
     clip-path="url(#1f0c58d6b9)"
     id="g101"
     transform="translate(-502.29688,-187.25391)">
    <g
       clip-path="url(#674a87bc7d)"
       id="g100">
      <g
         transform="translate(567,308)"
         id="g99">
        <g
           clip-path="url(#d1ad3a46fd)"
           id="g98">
          <g
             clip-path="url(#a2765e8b30)"
             id="g97">
            <g
               clip-path="url(#dbcf98504c)"
               id="g96">
              <path
                 fill="#919191"
                 d="M -1.285156,0.304688 H 87.28125 V 66.796875 H -1.285156 Z m 0,0"
                 fill-opacity="1"
                 fill-rule="nonzero"
                 id="path95" />
            </g>
          </g>
        </g>
      </g>
    </g>
  </g>
  <path
     stroke-linecap="butt"
     fill="none"
     stroke-linejoin="miter"
     d="m 107.7461,187.54297 v 57.79297 c 0,2.61328 1.03906,5.12109 2.88672,6.96875 1.84765,1.84765 4.35546,2.88672 6.96875,2.88672 h 9.85546"
     stroke="#919191"
     stroke-width="15.75"
     stroke-opacity="1"
     stroke-miterlimit="4"
     id="path101" />
  <g
     clip-path="url(#e3ae1735f7)"
     id="g107"
     transform="translate(-502.29688,-187.25391)">
    <g
       clip-path="url(#c0ff0e42ae)"
       id="g106">
      <g
         transform="translate(565,290)"
         id="g105">
        <g
           clip-path="url(#1dd6f8135d)"
           id="g104">
          <g
             clip-path="url(#4f5ff2f3b0)"
             id="g103">
            <g
               clip-path="url(#a6f80d5040)"
               id="g102">
              <path
                 fill="#919191"
                 d="M 0.714844,0.394531 H 89.355469 V 10.441406 H 0.714844 Z m 0,0"
                 fill-opacity="1"
                 fill-rule="nonzero"
                 id="path102" />
            </g>
          </g>
        </g>
      </g>
    </g>
  </g>
  <path
     stroke-linecap="butt"
     fill="none"
     stroke-linejoin="miter"
     d="m 332.98828,146.71094 v 96.10547 c 0,3.28125 -1.30468,6.42969 -3.625,8.75 -2.32031,2.32032 -5.46875,3.625 -8.75,3.625 h -12.375"
     stroke="#919191"
     stroke-width="15.75"
     stroke-opacity="1"
     stroke-miterlimit="4"
     id="path107" />
  <g
     clip-path="url(#0e1b88e8c7)"
     id="g113"
     transform="translate(-502.29688,-187.25391)">
    <g
       clip-path="url(#c678218bdc)"
       id="g112">
      <g
         transform="translate(698,394)"
         id="g111">
        <g
           clip-path="url(#378f969d87)"
           id="g110">
          <g
             clip-path="url(#2841156851)"
             id="g109">
            <g
               clip-path="url(#c73e965270)"
               id="g108">
              <path
                 fill="#919191"
                 d="M 0.632812,0.789062 H 38.109375 V 134.16016 H 0.632812 Z m 0,0"
                 fill-opacity="1"
                 fill-rule="nonzero"
                 id="path108" />
            </g>
          </g>
        </g>
      </g>
    </g>
  </g>
  <g
     clip-path="url(#cfb51cb9de)"
     id="g119"
     transform="translate(-502.29688,-187.25391)">
    <g
       clip-path="url(#12cf5d4e05)"
       id="g118">
      <g
         transform="translate(629,497)"
         id="g117">
        <g
           clip-path="url(#a074b1b0cb)"
           id="g116">
          <g
             clip-path="url(#9c2dd8b4d2)"
             id="g115">
            <g
               clip-path="url(#7ba8f3f325)"
               id="g114">
              <path
                 fill="#919191"
                 d="M 181.52734,0.53125 V 31.222656 H 0.746094 V 0.53125 Z m 0,0"
                 fill-opacity="1"
                 fill-rule="nonzero"
                 id="path113" />
            </g>
          </g>
        </g>
      </g>
    </g>
  </g>
  <path
     stroke-linecap="butt"
     fill="none"
     stroke-linejoin="miter"
     d="m 297.91797,129.2461 70.14066,-0.38672"
     stroke="#919191"
     stroke-width="8.25"
     stroke-opacity="1"
     stroke-miterlimit="4"
     id="path119" />
  <g
     clip-path="url(#d3f5d80a71)"
     id="g125"
     transform="translate(-502.29688,-187.25391)">
    <g
       clip-path="url(#4e42738604)"
       id="g124">
      <g
         transform="translate(787,305)"
         id="g123">
        <g
           clip-path="url(#df50816804)"
           id="g122">
          <g
             clip-path="url(#030663bc74)"
             id="g121">
            <g
               clip-path="url(#1a9a1d2963)"
               id="g120">
              <path
                 fill="#919191"
                 d="M 0.921875,0.191406 H 23.535156 V 22.804688 H 0.921875 Z m 0,0"
                 fill-opacity="1"
                 fill-rule="nonzero"
                 id="path120" />
            </g>
          </g>
        </g>
      </g>
    </g>
  </g>
  <g
     clip-path="url(#82f9edb6ce)"
     id="g131"
     transform="translate(-502.29688,-187.25391)">
    <g
       clip-path="url(#94df21bbf7)"
       id="g130">
      <g
         transform="translate(859,304)"
         id="g129">
        <g
           clip-path="url(#d6877d8e33)"
           id="g128">
          <g
             clip-path="url(#32795c97cd)"
             id="g127">
            <g
               clip-path="url(#3a2c0ac103)"
               id="g126">
              <path
                 fill="#919191"
                 d="M 0.046875,0.804688 H 22.664062 V 23.421875 H 0.046875 Z m 0,0"
                 fill-opacity="1"
                 fill-rule="nonzero"
                 id="path125" />
            </g>
          </g>
        </g>
      </g>
    </g>
  </g>
  <path
     stroke-linecap="butt"
     fill="none"
     stroke-linejoin="miter"
     d="M 308.35156,141.00782 356.75,140.55079"
     stroke="#919191"
     stroke-width="8.25"
     stroke-opacity="1"
     stroke-miterlimit="4"
     id="path131" />
  <path
     fill="#fff3c2"
     d="m 243.37499,244.02734 c 0,0.76172 -0.0742,1.51562 -0.22265,2.26172 -0.14844,0.74609 -0.3711,1.47265 -0.66016,2.17578 -0.29297,0.70312 -0.64844,1.37109 -1.07031,2 -0.42188,0.63281 -0.90234,1.21875 -1.44141,1.75781 -0.53906,0.53906 -1.125,1.01953 -1.75781,1.44141 -0.62891,0.42187 -1.29687,0.77734 -2,1.07031 -0.70312,0.28906 -1.42969,0.51172 -2.17578,0.66016 -0.74609,0.14843 -1.5,0.22265 -2.26172,0.22265 -0.7578,0 -1.51172,-0.0742 -2.2578,-0.22265 -0.7461,-0.14844 -1.47267,-0.3711 -2.17579,-0.66016 -0.70313,-0.29297 -1.37109,-0.64844 -2,-1.07031 -0.63282,-0.42188 -1.21875,-0.90235 -1.75782,-1.44141 -0.53906,-0.53906 -1.01953,-1.125 -1.4414,-1.75781 -0.42188,-0.62891 -0.77735,-1.29688 -1.07031,-2 -0.29297,-0.70313 -0.51172,-1.42969 -0.66016,-2.17578 -0.14844,-0.7461 -0.22266,-1.5 -0.22266,-2.26172 0,-0.75781 0.0742,-1.51172 0.22266,-2.25781 0.14844,-0.7461 0.36719,-1.47266 0.66016,-2.17578 0.29296,-0.70313 0.64843,-1.3711 1.07031,-2 0.42187,-0.63282 0.90234,-1.21875 1.4414,-1.75782 0.53907,-0.53906 1.125,-1.01953 1.75782,-1.4414 0.62891,-0.42188 1.29687,-0.77735 2,-1.07032 0.70312,-0.29296 1.42968,-0.51171 2.17579,-0.66015 0.74608,-0.14844 1.5,-0.22266 2.2578,-0.22266 0.76172,0 1.51563,0.0742 2.26172,0.22266 0.74609,0.14844 1.47266,0.36719 2.17578,0.66015 0.70313,0.29297 1.37109,0.64844 2,1.07032 0.63281,0.42187 1.21875,0.90234 1.75781,1.4414 0.53907,0.53907 1.01953,1.125 1.44141,1.75782 0.42187,0.6289 0.77734,1.29687 1.07031,2 0.28906,0.70312 0.51172,1.42968 0.66016,2.17578 0.14844,0.74609 0.22265,1.5 0.22265,2.25781 z m 0,0"
     fill-opacity="1"
     fill-rule="nonzero"
     id="path132" />
  <g
     clip-path="url(#817f26f6ef)"
     id="g133"
     transform="translate(-502.29688,-187.25391)">
    <path
       fill="#fff3c2"
       d="m 734.08203,408.52344 c -0.83984,0 -1.51562,0.8125 -1.51562,1.82031 v 3.94531 c 0,1.00781 0.67578,1.82031 1.51562,1.82031 0.84375,0 1.51953,-0.8125 1.51953,-1.82031 v -3.94531 c 0,-1.00781 -0.67578,-1.82031 -1.51953,-1.82031 z m 0,0"
       fill-opacity="1"
       fill-rule="nonzero"
       id="path133" />
  </g>
  <path
     fill="#fff3c2"
     d="m 247.88281,227.93359 c -0.59766,-0.59375 -1.64844,-0.49609 -2.36328,0.21484 l -2.78907,2.79297 c -0.71093,0.71094 -0.80859,1.76563 -0.21484,2.35938 0.59375,0.59375 1.64844,0.49609 2.35937,-0.21485 l 2.79297,-2.78906 c 0.71094,-0.71484 0.8086,-1.76562 0.21485,-2.36328 z m 0,0"
     fill-opacity="1"
     fill-rule="nonzero"
     id="path134" />
  <g
     clip-path="url(#e8f524c271)"
     id="g135"
     transform="translate(-502.29688,-187.25391)">
    <path
       fill="#fff3c2"
       d="m 756.84375,431.28125 c 0,-0.83984 -0.8125,-1.51563 -1.82031,-1.51563 h -3.94532 c -1.00781,0 -1.82031,0.67579 -1.82031,1.51563 0,0.84375 0.8125,1.51953 1.82031,1.51953 h 3.94532 c 1.00781,0 1.82031,-0.67578 1.82031,-1.51953 z m 0,0"
       fill-opacity="1"
       fill-rule="nonzero"
       id="path135" />
  </g>
  <path
     fill="#fff3c2"
     d="m 247.88281,260.125 c 0.59375,-0.59766 0.49609,-1.64844 -0.21484,-2.36329 l -2.79297,-2.78906 c -0.71093,-0.71094 -1.76562,-0.80859 -2.35937,-0.21484 -0.59375,0.59375 -0.49609,1.64844 0.21484,2.35937 l 2.78907,2.79297 c 0.71484,0.71094 1.76562,0.8086 2.36327,0.21485 z m 0,0"
     fill-opacity="1"
     fill-rule="nonzero"
     id="path136" />
  <path
     fill="#fff3c2"
     d="m 231.78515,266.78906 c 0.84375,0 1.51953,-0.8125 1.51953,-1.82031 v -3.94532 c 0,-1.00781 -0.67578,-1.82031 -1.51953,-1.82031 -0.83984,0 -1.51562,0.8125 -1.51562,1.82031 v 3.94532 c 0,1.00781 0.67578,1.82031 1.51562,1.82031 z m 0,0"
     fill-opacity="1"
     fill-rule="nonzero"
     id="path137" />
  <path
     fill="#fff3c2"
     d="m 215.6914,260.125 c 0.59766,0.59375 1.64845,0.49609 2.36328,-0.21485 l 2.78906,-2.79297 c 0.71094,-0.71093 0.8086,-1.76562 0.21485,-2.35937 -0.59375,-0.59375 -1.64844,-0.4961 -2.36328,0.21484 l -2.78907,2.78906 c -0.71093,0.71485 -0.80859,1.76563 -0.21484,2.36329 z m 0,0"
     fill-opacity="1"
     fill-rule="nonzero"
     id="path138" />
  <path
     fill="#fff3c2"
     d="m 209.02734,244.02734 c 0,0.84375 0.8125,1.51953 1.82031,1.51953 h 3.94531 c 1.00782,0 1.82032,-0.67578 1.82032,-1.51953 0,-0.83984 -0.8125,-1.51563 -1.82032,-1.51563 h -3.94531 c -1.00781,0 -1.82031,0.67579 -1.82031,1.51563 z m 0,0"
     fill-opacity="1"
     fill-rule="nonzero"
     id="path139" />
  <path
     fill="#fff3c2"
     d="m 215.6914,227.93359 c -0.59375,0.59766 -0.49609,1.64844 0.21484,2.36328 l 2.78907,2.78906 c 0.71484,0.71094 1.76954,0.8086 2.36329,0.21485 0.59375,-0.59375 0.49608,-1.64844 -0.21485,-2.35938 l -2.78906,-2.79297 c -0.71484,-0.71093 -1.76562,-0.80859 -2.36329,-0.21484 z m 0,0"
     fill-opacity="1"
     fill-rule="nonzero"
     id="path140" />
  <g
     clip-path="url(#2d718f6e28)"
     id="g141"
     transform="translate(-502.29688,-187.25391)">
    <path
       fill="#545454"
       d="m 705.28516,426.8125 c -0.86719,0 -1.72266,0.082 -2.57422,0.25391 -0.84766,0.16796 -1.67578,0.41796 -2.47657,0.75 -0.80078,0.33203 -1.55859,0.73828 -2.28125,1.21875 -0.71875,0.48046 -1.38671,1.02734 -2,1.64062 -0.60937,0.61328 -1.15625,1.28125 -1.64062,2 -0.48047,0.71875 -0.88672,1.48047 -1.21875,2.28125 -0.33203,0.80078 -0.58203,1.625 -0.75,2.47656 -0.16797,0.84766 -0.25391,1.70703 -0.25391,2.57422 0.004,0.48828 0.0312,0.97656 0.0899,1.46094 -4.97657,0.89453 -8.71094,4.91406 -8.71094,9.76562 0,5.51172 4.82031,9.95313 10.80469,9.95313 h 38.55859 c 5.51172,0 9.95313,-4.125 9.95313,-9.25 0,-5.09375 -4.38672,-9.19922 -9.85157,-9.25 -0.0859,-0.68359 -0.23437,-1.35547 -0.4414,-2.01172 -0.20703,-0.66016 -0.47266,-1.29297 -0.79688,-1.90234 -0.32422,-0.60938 -0.69922,-1.1836 -1.125,-1.72657 -0.42969,-0.54296 -0.89844,-1.03906 -1.41797,-1.49609 -0.51562,-0.45703 -1.07031,-0.86328 -1.66406,-1.21875 -0.58984,-0.35547 -1.20703,-0.65234 -1.85156,-0.89844 -0.64453,-0.24218 -1.3086,-0.42578 -1.98828,-0.55078 -0.67578,-0.125 -1.35938,-0.1875 -2.05078,-0.1875 -1.64454,0.004 -3.21485,0.34375 -4.71094,1.02344 -0.56641,-1.04297 -1.26172,-1.99609 -2.08203,-2.85156 -0.82422,-0.85547 -1.7461,-1.58985 -2.76953,-2.19922 -1.01954,-0.60547 -2.10157,-1.07031 -3.25,-1.38281 -1.14454,-0.31641 -2.3125,-0.47266 -3.5,-0.47266 z m 0,0"
       fill-opacity="1"
       fill-rule="nonzero"
       id="path141" />
  </g>
  <path
     fill="#545454"
     d="m 196.62109,267.67187 c -1.00391,1.12891 -3.71875,3.39453 -4.53516,6.48047 -0.0937,0.34375 -0.11719,0.69531 -0.0703,1.05078 0.0469,0.35547 0.16016,0.6875 0.33984,1 0.17969,0.30859 0.41016,0.57422 0.69532,0.79297 0.28515,0.21875 0.59765,0.37109 0.94531,0.46484 0.34765,0.0937 0.69922,0.11719 1.05078,0.0703 0.35547,-0.0469 0.69141,-0.16016 1,-0.33985 0.3125,-0.17969 0.57422,-0.41015 0.79297,-0.69531 0.21875,-0.28516 0.375,-0.59766 0.46484,-0.94531 0.008,-0.0234 0.0156,-0.0469 0.0195,-0.0664 0.83985,-3.24219 -0.40234,-6.34375 -0.70312,-7.8125 z m 0,0"
     fill-opacity="1"
     fill-rule="nonzero"
     id="path142" />
  <path
     fill="#545454"
     d="m 208.97656,267.67187 c -1.00391,1.12891 -3.71875,3.39453 -4.53516,6.48047 -0.0937,0.34375 -0.11719,0.69531 -0.0703,1.05078 0.0469,0.35547 0.16016,0.6875 0.33984,1 0.1797,0.30859 0.41016,0.57422 0.69531,0.79297 0.28516,0.21875 0.59766,0.37109 0.94532,0.46484 0.34766,0.0937 0.69531,0.11719 1.05078,0.0703 0.35547,-0.0469 0.69141,-0.16016 1,-0.33985 0.30859,-0.17969 0.57422,-0.41015 0.79297,-0.69531 0.21875,-0.28516 0.375,-0.59766 0.46484,-0.94531 0.008,-0.0234 0.0117,-0.0469 0.0195,-0.0664 0.83985,-3.24219 -0.40234,-6.34375 -0.70312,-7.8125 z m 0,0"
     fill-opacity="1"
     fill-rule="nonzero"
     id="path143" />
  <path
     fill="#545454"
     d="m 221.35156,268 c -1.00391,1.13281 -3.71875,3.39843 -4.53516,6.48046 -0.0937,0.34766 -0.11719,0.69922 -0.0703,1.05469 0.0469,0.35547 0.16016,0.6875 0.33984,0.9961 0.1797,0.3125 0.41016,0.57421 0.69531,0.79296 0.28516,0.21875 0.59766,0.375 0.94532,0.46875 0.34766,0.0899 0.69531,0.11329 1.05078,0.0664 0.35547,-0.0469 0.69141,-0.16016 1,-0.33984 0.3125,-0.17578 0.57422,-0.41016 0.79297,-0.69532 0.21875,-0.28125 0.375,-0.59765 0.46484,-0.94531 0.008,-0.0195 0.0117,-0.043 0.0195,-0.0664 0.83985,-3.23829 -0.40234,-6.33985 -0.70312,-7.8125 z m 0,0"
     fill-opacity="1"
     fill-rule="nonzero"
     id="path144" />
  <g
     clip-path="url(#7872b501c1)"
     id="g145"
     transform="translate(-502.29688,-187.25391)">
    <path
       fill="#545454"
       d="m 705.10547,466.17578 c -1.00391,1.13281 -3.71875,3.39844 -4.53516,6.48047 -0.0937,0.34766 -0.11719,0.69922 -0.0703,1.05469 0.0469,0.35156 0.16016,0.6875 0.33984,0.99609 0.17969,0.3125 0.41016,0.57422 0.69532,0.79297 0.28515,0.21875 0.60156,0.375 0.94531,0.46875 0.34765,0.0898 0.69922,0.11328 1.05469,0.0664 0.35156,-0.0469 0.6875,-0.16016 0.99609,-0.33985 0.3125,-0.17578 0.57422,-0.41015 0.79297,-0.69531 0.21875,-0.28125 0.375,-0.59766 0.46875,-0.94531 0.004,-0.0195 0.0117,-0.043 0.0156,-0.0664 0.83985,-3.23828 -0.40234,-6.33984 -0.70312,-7.8125 z m 0,0"
       fill-opacity="1"
       fill-rule="nonzero"
       id="path145" />
  </g>
  <g
     clip-path="url(#9dab153a2b)"
     id="g146"
     transform="translate(-502.29688,-187.25391)">
    <path
       fill="#545454"
       d="m 717.46094,466.17578 c -1.00391,1.13281 -3.71875,3.39844 -4.53516,6.48047 -0.0937,0.34766 -0.11719,0.69922 -0.0703,1.05469 0.0469,0.35156 0.16015,0.6875 0.33984,0.99609 0.17969,0.3125 0.41016,0.57422 0.69531,0.79297 0.28516,0.21875 0.59766,0.375 0.94532,0.46875 0.34765,0.0898 0.69531,0.11328 1.05078,0.0664 0.35547,-0.0469 0.6914,-0.16016 1,-0.33985 0.3125,-0.17578 0.57422,-0.41015 0.79297,-0.69531 0.21875,-0.28125 0.375,-0.59766 0.46484,-0.94531 0.008,-0.0195 0.0117,-0.043 0.0195,-0.0664 0.83985,-3.23828 -0.40234,-6.33984 -0.70312,-7.8125 z m 0,0"
       fill-opacity="1"
       fill-rule="nonzero"
       id="path146" />
  </g>
</svg>
