<?xml version="1.0" encoding="UTF-8" standalone="no"?>
<svg
   width="579.67"
   height="579.66"
   preserveAspectRatio="xMidYMid"
   version="1.0"
   viewBox="0 0 434.75 434.75"
   zoomAndPan="magnify"
   id="svg59"
   sodipodi:docname="GAZEX.svg"
   inkscape:version="1.4.2 (f4327f4, 2025-05-13)"
   xmlns:inkscape="http://www.inkscape.org/namespaces/inkscape"
   xmlns:sodipodi="http://sodipodi.sourceforge.net/DTD/sodipodi-0.dtd"
   xmlns="http://www.w3.org/2000/svg"
   xmlns:svg="http://www.w3.org/2000/svg">
  <sodipodi:namedview
     id="namedview59"
     pagecolor="#ffffff"
     bordercolor="#000000"
     borderopacity="0.25"
     inkscape:showpageshadow="2"
     inkscape:pageopacity="0.0"
     inkscape:pagecheckerboard="0"
     inkscape:deskcolor="#d1d1d1"
     inkscape:zoom="1.1070273"
     inkscape:cx="41.552725"
     inkscape:cy="-70.007308"
     inkscape:window-width="3840"
     inkscape:window-height="2054"
     inkscape:window-x="3829"
     inkscape:window-y="-11"
     inkscape:window-maximized="1"
     inkscape:current-layer="svg59" />
  <defs
     id="defs27">
    <clipPath
       id="clipPath1">
      <path
         d="m425.01 224.99h434.75v434.75h-434.75z"
         id="path1" />
    </clipPath>
    <clipPath
       id="b93059bb20">
      <path
         d="m700 323h35v48h-35z"
         id="path2" />
    </clipPath>
    <clipPath
       id="1728bee0bc">
      <path
         d="m738.79 365.18-24.242 9.625-18.051-45.449 24.238-9.6289z"
         id="path3" />
    </clipPath>
    <clipPath
       id="2eb2a0ed62">
      <path
         d="m726.66 369.99c-6.6953 2.6602-14.277-0.61328-16.934-7.3047l-8.3906-21.129c-2.6602-6.6914 0.60938-14.273 7.3047-16.934 6.6953-2.6602 14.277 0.61328 16.934 7.3086l8.3906 21.125c2.6602 6.6953-0.61328 14.273-7.3047 16.934z"
         id="path4" />
    </clipPath>
    <clipPath
       id="b1d3a25b19">
      <path
         d="m0 0h35v48h-35z"
         id="path5" />
    </clipPath>
    <clipPath
       id="8a3668fa83">
      <path
         d="m38.785 42.176-24.242 9.625-18.051-45.449 24.238-9.6289z"
         id="path6" />
    </clipPath>
    <clipPath
       id="7b1a936771">
      <path
         d="m26.664 46.988c-6.6953 2.6602-14.277-0.61328-16.934-7.3047l-8.3906-21.129c-2.6602-6.6914 0.60938-14.273 7.3047-16.934 6.6953-2.6602 14.277 0.61328 16.934 7.3086l8.3906 21.125c2.6602 6.6953-0.61328 14.273-7.3047 16.934z"
         id="path7" />
    </clipPath>
    <clipPath
       id="fa5db8bb2c">
      <rect
         width="35"
         height="48"
         id="rect7" />
    </clipPath>
    <clipPath
       id="07c9de652d">
      <path
         d="m653 323h74v47h-74z"
         id="path8" />
    </clipPath>
    <clipPath
       id="1383b0b587">
      <path
         d="m720.16 319.82 9.9805 24.098-70.879 29.359-9.9805-24.098z"
         id="path9" />
    </clipPath>
    <clipPath
       id="454f716929">
      <path
         d="m725.15 331.86c2.7578 6.6562-0.40235 14.285-7.0547 17.039l-46.73 19.359c-6.6562 2.7539-14.285-0.40235-17.039-7.0586-2.7578-6.6523 0.40234-14.281 7.0547-17.039l46.73-19.359c6.6562-2.7539 14.285 0.40625 17.039 7.0586z"
         id="path10" />
    </clipPath>
    <clipPath
       id="5db3ebfd28">
      <path
         d="m0 0h74v47h-74z"
         id="path11" />
    </clipPath>
    <clipPath
       id="47e53e031c">
      <path
         d="m67.16-3.1836 9.9805 24.098-70.879 29.359-9.9805-24.098z"
         id="path12" />
    </clipPath>
    <clipPath
       id="7525b60115">
      <path
         d="m72.148 8.8633c2.7578 6.6562-0.40234 14.285-7.0547 17.039l-46.73 19.359c-6.6562 2.7539-14.285-0.40234-17.039-7.0586-2.7578-6.6523 0.40234-14.281 7.0547-17.039l46.73-19.359c6.6562-2.7539 14.285 0.40625 17.039 7.0586z"
         id="path13" />
    </clipPath>
    <clipPath
       id="aa39a0e8a9">
      <rect
         width="74"
         height="47"
         id="rect13" />
    </clipPath>
    <clipPath
       id="7f0528b1c5">
      <path
         d="m676 374h122v218h-122z"
         id="path14" />
    </clipPath>
    <clipPath
       id="9f71b230f2">
      <path
         d="m675.43 364.97 170.73 59.34-59.34 170.73-170.73-59.34z"
         id="path15" />
    </clipPath>
    <clipPath
       id="3de6afdafd">
      <path
         d="m675.43 364.97 170.73 59.34-59.34 170.73-170.73-59.34z"
         id="path16" />
    </clipPath>
    <clipPath
       id="05056b4429">
      <path
         d="m667 448h30v46h-30z"
         id="path17" />
    </clipPath>
    <clipPath
       id="c282795300">
      <path
         d="m675.43 364.97 170.73 59.34-59.34 170.73-170.73-59.34z"
         id="path18" />
    </clipPath>
    <clipPath
       id="a923445fa3">
      <path
         d="m675.43 364.97 170.73 59.34-59.34 170.73-170.73-59.34z"
         id="path19" />
    </clipPath>
    <clipPath
       id="ff22044981">
      <path
         d="m697 505h29v45h-29z"
         id="path20" />
    </clipPath>
    <clipPath
       id="0b99bd6650">
      <path
         d="m675.43 364.97 170.73 59.34-59.34 170.73-170.73-59.34z"
         id="path21" />
    </clipPath>
    <clipPath
       id="2c82908c31">
      <path
         d="m675.43 364.97 170.73 59.34-59.34 170.73-170.73-59.34z"
         id="path22" />
    </clipPath>
    <clipPath
       id="cbcd123b7e-6">
      <path
         d="m437.85 231.33h434.75v434.75h-434.75z"
         id="path23" />
    </clipPath>
    <clipPath
       id="101bccb57d-9">
      <path
         d="m655.22 231.33c-120.05 0-217.38 97.32-217.38 217.37 0 120.05 97.324 217.38 217.38 217.38 120.05 0 217.38-97.32 217.38-217.38 0-120.05-97.32-217.37-217.38-217.37z"
         id="path24" />
    </clipPath>
    <clipPath
       id="2b670dad7c-2">
      <rect
         width="436"
         height="436"
         id="rect24" />
    </clipPath>
    <clipPath
       id="69cd9a8adb-3">
      <path
         d="m0.84766 0.33203h434.75v434.75h-434.75z"
         id="path25" />
    </clipPath>
    <clipPath
       id="24fe4f92f3-1">
      <path
         d="m218.22 0.33203c-120.05 0-217.38 97.32-217.38 217.37 0 120.05 97.324 217.38 217.38 217.38 120.05 0 217.38-97.32 217.38-217.38 0-120.05-97.32-217.37-217.38-217.37z"
         id="path26" />
    </clipPath>
    <clipPath
       id="42a5c4ccb8-9">
      <path
         d="m655.22 231.33c-120.05 0-217.37 97.32-217.37 217.37 0 120.05 97.32 217.37 217.37 217.37s217.37-97.32 217.37-217.37c0-120.05-97.32-217.37-217.37-217.37z"
         id="path27" />
    </clipPath>
  </defs>
  <circle
     style="display:inline;opacity:1;fill:#fff3c2;stroke:#000000;stroke-width:7.12403;stroke-linecap:round;stroke-linejoin:round"
     id="path59"
     cx="217.37125"
     cy="217.375"
     r="213.81299" />
  <g
     transform="translate(-424.61 -224.07)"
     clip-path="url(#b93059bb20)"
     id="g41">
    <g
       clip-path="url(#1728bee0bc)"
       id="g40">
      <g
         clip-path="url(#2eb2a0ed62)"
         id="g39">
        <g
           transform="translate(700,323)"
           id="g38">
          <g
             clip-path="url(#fa5db8bb2c)"
             id="g37">
            <g
               clip-path="url(#b1d3a25b19)"
               id="g36">
              <g
                 clip-path="url(#8a3668fa83)"
                 id="g35">
                <g
                   clip-path="url(#7b1a936771)"
                   id="g34">
                  <path
                     d="m38.785 42.176-24.242 9.625-18.016-45.355 24.242-9.625z"
                     fill="#545454"
                     id="path33" />
                </g>
              </g>
            </g>
          </g>
        </g>
      </g>
    </g>
  </g>
  <g
     transform="translate(-424.61 -224.07)"
     clip-path="url(#07c9de652d)"
     id="g49">
    <g
       clip-path="url(#1383b0b587)"
       id="g48">
      <g
         clip-path="url(#454f716929)"
         id="g47">
        <g
           transform="translate(653,323)"
           id="g46">
          <g
             clip-path="url(#aa39a0e8a9)"
             id="g45">
            <g
               clip-path="url(#5db3ebfd28)"
               id="g44">
              <g
                 clip-path="url(#47e53e031c)"
                 id="g43">
                <g
                   clip-path="url(#7525b60115)"
                   id="g42">
                  <path
                     d="m67.16-3.1836 9.9805 24.098-70.785 29.32-9.9805-24.098z"
                     fill="#545454"
                     id="path41" />
                </g>
              </g>
            </g>
          </g>
        </g>
      </g>
    </g>
  </g>
  <g
     transform="matrix(.75316 0 0 .83024 -257.58 -160.48)"
     clip-path="url(#7f0528b1c5)"
     id="g52">
    <g
       clip-path="url(#9f71b230f2)"
       id="g51">
      <g
         clip-path="url(#3de6afdafd)"
         id="g50">
        <path
           d="m701.58 374.92c-0.55078 0.29687-1.1289 0.8789-1.2773 1.3125-0.3125 0.90234 0.63281 2.9141 24.27 50.93l13.09 26.641-1.5 0.33594c-4.2539 0.95312-5.7227 2.3867-4.4336 4.3672 0.36328 0.57421 0.82422 1.0703 1.0586 1.1523 0.23437 0.082 1.7539-0.21484 3.4336-0.63672 4.1797-1.0547 5.8125-1.2344 9.5508-1.0195 5.9219 0.26562 12.266 2.9922 16.699 7.1133 2.4844 2.3203 3.4844 2.668 5.2148 1.7734 1.9531-1 5.3711-1.793 7.7578-1.7852 9.5898 0.043 17.117 7.9648 16.898 17.832-0.0312 2.5664-1.4219 6.5703-3.0469 8.8828-1.6836 2.3672-4.4844 4.7188-5.0664 4.2539-0.23437-0.1914-1.4062-1.1211-2.6094-2.0625-2.7109-2.1016-5.2812-3.5195-8.582-4.6641l-2.5703-0.89453-0.26172-2.1484c-0.65625-5.3086-5.2305-10.973-10.266-12.723-1.9648-0.68359-4.0156 1.4453-3.0547 3.1992 0.21875 0.44922 1.3242 1.2461 2.3984 1.8047 3.4297 1.7539 5.668 4.8828 6.2422 8.7109 0.26953 1.6992 0.18359 2.3789-0.72266 4.9805-0.86719 2.5-1.2578 3.1875-2.3086 4.168-2.0312 1.8711-4.3906 2.9609-7.0391 3.2695-3.457 0.37109-4.6562 1.6719-3.418 3.5976 0.85156 1.3047 1.2539 1.4453 4.125 1.1367 5.6367-0.62109 10.188-3.9336 12.949-9.5156l0.80469-1.5508 3.3086 1.3359c4.0664 1.6367 6.7617 3.6602 9.3008 7.0078 3.5547 4.7109 5.1289 9.2188 5.0156 14.488-0.0703 3.8633-1.6875 9.0547-3.7226 11.785-2.5234 3.4961-4.7344 5.3438-8.5195 7.207-6.0664 2.9336-11.629 3.1328-17.906 0.53907-5.8164-2.3945-1.7266 5.082-41.219-75.281-19.367-39.438-35.477-71.906-35.82-72.215-1.3164-1.0547-3.5508-0.10937-3.6836 1.5625-0.0625 0.5 18.977 39.707 44.508 91.637 57.25 116.59 53.754 109.54 54.867 109.78 1.2148 0.27343 2.8594-0.80079 2.9609-1.9609 0.0195-0.47656-5.0156-11.16-11.695-24.73l-11.766-23.898 3.5976 0.83985c7.0117 1.5391 12.133 1 18.223-2.0039 6.7188-3.3047 10.297-7.1445 12.984-14.023 1.3359-3.3086 1.6211-4.4453 1.8438-7.0195 0.52734-5.6094-0.89454-12.16-3.4141-15.988-0.67968-1.0586-1.1797-1.9805-1.1797-2.0898 0.0469-0.13672 0.87109-0.89454 1.8516-1.6758 3.1055-2.582 4.8594-5.2617 6.375-9.6328 0.99609-2.8672 1.3281-4.3594 1.3359-5.8867 0.0508-7.457-2.9024-13.902-8.4414-18.297-1.5781-1.2578-2.6016-1.7617-6.0547-3-5.3047-1.8438-8.0156-2-12.91-0.71094l-3.418 0.90234-1.3008-1.0859c-3.8242-3.1992-5.3516-4.0664-10.656-5.9102-4.6797-1.5898-5.5039-1.8008-8.4609-1.8945l-3.2344-0.15234-9.9688-20.133c-5.4883-11.102-10.023-20.305-10.047-20.461-0.0508-0.16797-4.207-8.6367-9.2812-18.883-7.0078-14.137-9.4102-18.633-10.008-18.84-0.46875-0.16406-1.25-0.0625-1.8008 0.23047z"
           fill="#919191"
           id="path49" />
      </g>
    </g>
  </g>
  <g
     transform="translate(-424.61 -224.07)"
     clip-path="url(#05056b4429)"
     id="g55">
    <g
       clip-path="url(#c282795300)"
       id="g54">
      <g
         clip-path="url(#a923445fa3)"
         id="g53">
        <path
           d="m682.64 452.21c-7.6211 4.7148-8.1758 5.3438-6.6367 7.3711 0.97656 1.2734 2.2969 1.0234 5.6289-1.1445l2.8828-1.8398-0.62109 2.1016-0.61719 2.1055-4.9062 3.0391c-7.4023 4.5274-7.5976 4.7617-6.6172 6.6719 1.0039 1.9531 2.0976 1.8125 5.9492-0.66406l2.8477-1.8477-0.60547 2.0664-0.60937 2.0703-5.7734 3.5976c-3.8711 2.4297-5.8203 3.8477-6.0156 4.4141-0.42968 1.2344 0.39063 2.6406 1.7031 2.9453 0.89062 0.23437 1.6406-0.10156 4.2969-1.7188l3.2305-1.9805-2.0273 5.8359c-1.8906 5.4336-1.9961 5.957-1.6055 6.7656 0.56641 1.1719 2.0977 1.7031 3.2109 1.082 0.77734-0.40625 1.1562-1.168 3.0273-6.125l2.1367-5.6094 0.77344 2.2852c1.2188 3.6016 1.9492 4.8242 3.0312 5.0508 1.2461 0.28515 2.8867-0.78907 2.8906-1.8711 0.0274-0.40234-0.94922-3.5078-2.1562-6.8047l-2.1562-6.0547 0.67188-1.9336c0.38281-1.1016 0.75-1.9453 0.8164-1.9219 0.0664 0.0234 0.64063 1.4922 1.3008 3.2539 0.64453 1.793 1.5078 3.4023 1.8945 3.6836 1.6484 1.0625 3.7773-0.32813 3.4922-2.2969-0.0937-0.59375-1.0859-3.5547-2.1836-6.6289l-2.0391-5.5274 0.74219-2.1367 0.74218-2.1328 1.2266 3.4531c1.293 3.5898 2.0664 4.4922 3.5625 4.2656 0.98437-0.14062 2.0156-1.2812 1.9922-2.1836 0-0.75-3.3828-10.484-4.5234-13.008-0.53907-1.2344-1.0039-1.7344-1.8047-2.0117-0.96485-0.33594-1.5938-0.0312-7.1524 3.3828z"
           fill="#919191"
           id="path52" />
      </g>
    </g>
  </g>
  <g
     transform="translate(-424.61 -224.07)"
     clip-path="url(#ff22044981)"
     id="g58">
    <g
       clip-path="url(#0b99bd6650)"
       id="g57">
      <g
         clip-path="url(#2c82908c31)"
         id="g56">
        <path
           d="m715.57 506.82c-10.363 6.2617-10.734 6.582-10.176 8.3086 0.21484 0.67187 0.71875 1.2617 1.2969 1.5352 1 0.46094 2.1797-0.0273 6.668-2.8398l0.95704-0.60156-0.6836 2.0781-0.71875 2.0664-5.3008 3.3164c-6.1562 3.8398-6.6445 4.2695-6.1602 5.7812 0.73047 2.3125 2.2578 2.3203 5.8633 0.0195l2.8789-1.8359-0.60547 2.0664-0.59765 2.0352-5.1094 3.1953c-6.0859 3.7539-6.7188 4.2812-6.5234 5.543 0.17579 1.2188 0.4961 1.5938 1.7617 2.0352 0.9336 0.32422 1.418 0.11718 4.0938-1.5664l3.0274-1.9375-1.8047 5.8359c-0.98828 3.1719-1.8047 5.8398-1.7812 5.8828 0.5 1.1445 0.91797 1.5547 1.8164 1.8672 1.8672 0.64844 2.1641 0.22656 4.6016-6.1367l2.1953-5.7773 1.25 3.3867c1.1133 2.9258 1.4297 3.4102 2.4648 3.8828 0.91016 0.39062 1.3555 0.39453 1.9648-0.0664 0.4375-0.29297 0.90625-0.87891 1.043-1.2812 0.15234-0.43359-0.6836-3.3008-2.0312-7.0586l-2.2852-6.3242 0.74219-2.1367 0.73047-2.1016 1.3047 3.5586c1.0781 2.9141 1.4609 3.6445 2.3047 4.0156 1.2188 0.57031 2.7344-0.0234 3.1524-1.2227 0.18359-0.53516-0.4961-2.9766-1.9844-7.1914l-2.2734-6.3594 0.72657-2.1016 0.73046-2.1016 1.0703 2.9492c1.3047 3.668 1.793 4.5117 2.7969 4.8594 1.0312 0.35937 2.5156-0.35938 2.8867-1.4258 0.18359-0.53516-0.47656-2.9297-1.9648-7.1484-2.6484-7.5352-2.9766-8.2109-4.1758-8.6289-0.76954-0.26562-1.5547 0.0586-4.1524 1.625z"
           fill="#919191"
           id="path55" />
      </g>
    </g>
  </g>
  <path
     d="m195.05 59.012c-1.9726 1.1445-135.71 267.69-135.71 270.49 0 0.83203 1.1406 2.6992 2.5938 4.0508l2.4922 2.5977h268.1l2.4922-2.5977c1.4531-1.3516 2.5938-3.2188 2.5938-4.0508 0-3.1133-133.84-269.45-135.92-270.49-2.4922-1.4531-4.2578-1.3477-6.6445 0zm34.887 83.484c16.926 33.953 30.527 61.781 30.215 61.781-0.30859 0-7.2656-6.4375-15.574-14.227-8.2031-7.8906-15.887-14.641-17.133-15.055-3.3203-1.2461-5.7109 0.51953-18.379 13.809-6.5391 6.8555-12.25 12.355-12.668 12.355-0.51953 0-5.7109-6.7461-11.629-15.055-7.4766-10.488-11.523-15.262-13.289-15.781-1.9727-0.51953-4.9844 0.62109-12.668 4.6719-5.6094 3.0117-10.176 5.1914-10.176 4.8789 0-1.0391 49.32-99.16 49.84-99.16 0.3125 0 14.434 27.828 31.461 61.781z"
     fill="#919191"
     id="path58" />
</svg>
